<svg height="1024pt" preserveAspectRatio="xMidYMid meet" viewBox="0 0 1024 1024" width="1024pt" xmlns="http://www.w3.org/2000/svg"><g transform="matrix(.1 0 0 -.1 0 1024)"><path d="m8650 7525c-8-9-10-29-7-50l6-34-676-561c-631-523-677-559-694-544-25 22-68 14-92-18-17-23-19-31-9-54 7-14 25-31 41-37 35-13 31 20 68-544 26-413 26-423 8-443-10-11-19-36-19-54l-1-34-130-12c-71-6-140-13-152-16-23-4-23-3-23 101v106l-107-3-108-3-3-111-3-111-52-6c-29-4-91-10-139-13l-88-7v342 341h-105-105l-2-352-3-353-110-12c-60-6-125-12-142-12l-33-1v150 150h-105-105v-154c0-111-3-156-12-163-12-9-332-43-400-43h-28v180 181l-107-3-108-3-3-191-2-191-123-11c-67-7-130-12-139-12-17 0-18 16-18 205v205h-90-89l-6-37c-4-21-7-42-8-46s-18 4-37 19c-93 70-208 100-323 84-199-29-331-198-354-452l-6-67-56-6c-31-3-68-8-83-10-26-4-26-4-33 73-19 242-77 355-220 426-160 81-444 38-548-84-89-105-122-220-122-430 0-178 18-258 79-349l35-51-757-624c-416-343-856-705-977-804l-220-181-21 19c-46 44-124 8-124-56 0-60 78-97 122-58 19 18-113 12 3913 179 875 36 2062 86 2640 110l1050 44 28-34c47-58 131-57 177 3 24 30 26 98 4 130-18 26-65 52-93 52-25 0-10-63-132 560-55 283-103 525-105 537-5 17 2 26 33 42 97 50 156 143 156 250 2 123-43 212-131 261l-37 21 7 82c3 45 7 97 7 114 1 29 9 38 71 79 80 54 80 55-1 128l-52 46 37 508c20 279 39 516 41 528 7 32 691 678 724 682 86 11 78 127-9 124-22 0-106 43-303 157-241 139-272 160-269 180 7 47-59 81-88 46zm345-242c258-150 272-159 264-181-6-16-4-32 6-51l14-29-102-99c-253-247-569-544-574-539s66 1020 73 1044c2 6 13 12 25 12s144-71 294-157zm-370-385c-20-277-38-513-40-524-4-17-910-893-933-901-13-5-353 776-350 803 2 19 156 151 678 584 371 308 676 556 678 550 2-5-13-236-33-512zm-80-1066c-19-260-35-486-35-501v-29l-72 25c-99 34-246 36-346 4-143-46-212-132-222-276l-5-80-102 232c-57 127-103 237-102 244 1 21 914 884 917 867 1-7-13-226-33-486zm-1078 12 174-389-68-62c-63-58-71-62-115-63h-48v-40-41l-37 7c-21 4-38 7-39 8 0 0-13 192-28 426s-30 454-33 489c-5 51-3 63 7 59 8-2 92-179 187-394zm288-648c60-135 113-242 118-239 6 3 7 1 3-5s7-44 24-83 30-72 28-74c-2-1-71 45-155 104l-152 106-1 163v162h-47-47l54 55c30 30 57 55 61 55 3 0 55-110 114-244zm-4370-27c76-21 135-116 135-216v-33h-225-225v23c0 30 33 127 55 161 40 61 162 92 260 65zm4988-19c23-11 58-36 78-54l37-34-6-90c-2-50-7-95-11-100-4-6-41 1-96 18-49 16-123 38-164 50-94 27-131 61-131 119 0 54 31 89 95 107 62 17 142 10 198-16zm-3892-10c28-10 69-31 90-46l39-27v-83c0-99 25-87-225-109-99-9-197-18-218-21l-39-6 8 48c17 121 59 198 128 239 53 32 143 34 217 5zm2778-4c-2-3-68-29-147-59l-142-55v44c0 28 5 44 13 45 6 1 64 7 127 14 143 15 154 16 149 11zm83-23c20-4 33-17 47-47 19-39 20-55 15-246l-6-205-26-22c-78-66-80-66-240-57l-147 9-8 47c-4 27-6 132-5 234l3 186 150 58c86 34 159 56 170 53s32-7 47-10zm68-8c0-28-15-33-24-8-4 9-1 20 6 25 18 11 18 11 18-17zm-662-92-3-76-137-53-138-52v114c0 63 1 114 3 115 3 2 229 26 255 28 22 1 23-1 20-76zm-488-112c0-101-4-141-13-149-7-6-49-24-92-40-44-17-104-39-132-51l-53-21v189 189l108 9c59 6 124 11 145 11l37 2zm-506-98c-4-104-7-189-8-190 0-1-97 4-214 10l-212 11v158c0 87 1 158 3 159 9 4 342 37 384 38l52 1zm2126-3c56-39 70-55 102-120 21-41 47-97 58-125l21-49-28 26-28 27-55-34c-51-32-59-33-113-27l-59 7-79 120-79 120v118 118l98-67c53-38 126-89 162-114zm-2780-11v-142l-132 7c-73 4-137 11-141 15s-6 59-5 122l3 114 105 11c58 6 120 12 138 13l32 1zm1650-11c0-79 3-160 6-180l7-38h-55c-30 0-96 3-147 7l-92 6 3 124 3 125 125 48c69 27 131 49 138 49 9 1 12-34 12-141zm-2140-1v-104l-52 4c-29 2-134 8-232 13-99 6-181 12-183 14s-6 33-10 69l-6 65 64 7c35 3 120 12 189 19 69 8 149 14 178 15l52 1zm3428 3c26-13 107-40 181-62 197-57 225-76 219-148-3-36-8-44-39-62l-36-20-199 139c-175 122-202 144-226 188-37 67-35 72 12 26 22-21 62-49 88-61zm-4128-15v-55l-77 5c-178 12-200 15-238 29l-40 15h88c80 1 89 3 94 21 5 20 26 26 108 33 22 2 46 4 53 5 8 1 12-15 12-53zm-530-18c-8-8-68-58-133-111-94-78-121-95-132-86-18 15-42 90-50 158l-7 52h168c142 0 166-2 154-13zm170-2 35-13-47-1c-44-1-65 8-51 23 9 8 22 7 63-9zm-104-126c7-63 14-119 14-126 0-41-205-44-278-3-23 13-42 26-42 29 2 14 276 229 283 222 5-5 15-60 23-122zm338 87c71-3 130-7 131-8 1-2 5-17 8-35l6-31-102 34c-56 19-105 33-110 31-5-1 40-19 100-38l108-36 20-54c34-89 62-134 112-179 70-62 123-83 224-88 102-5 167 11 253 63 32 19 62 35 67 35 12 0 11-117-2-163-16-57-63-104-122-122-107-32-308-10-416 44-38 20-41 20-50 4-13-26-61-145-61-153 0-6 57-33 139-66 20-9-14-24-244-112-147-56-270-100-273-98-5 5-62 487-62 528 0 22 8 30 53 51 58 27 107 65 137 107l20 28-81 57-82 56-33-32c-19-18-36-31-38-28-6 6-26 154-26 192v32l98-7c53-4 155-10 226-12zm2474-48-3-73-80 3c-140 4-205 13-205 27 0 8 46 31 108 54 59 23 116 46 127 51 50 22 56 15 53-62zm1935-77c81-56 147-105 147-107 0-10-245 9-256 20s-104 218-104 231c0 4 15-4 33-17 17-13 98-71 180-127zm-494 21c35-52 60-96 58-99-3-2-35-2-71 2l-66 7v101c0 58 4 97 9 92 4-6 36-52 70-103zm-3334 73c77-3 164-8 193-12 49-5 52-7 52-33 0-33-42-68-126-107-80-36-117-37-204-5-72 26-76 29-102 81-16 30-28 63-28 74 0 16 5 18 38 13 20-3 100-8 177-11zm734-41c2-2 7-40 12-85 6-60 16-100 38-143 17-34 27-64 23-67s-41-18-83-33l-76-28-94 29-94 29-3 144c-1 79 0 150 2 157 4 10 34 12 138 7 73-4 135-8 137-10zm561-31 64-6-34-29c-19-16-66-44-104-63-55-28-80-35-127-35-77 0-115 31-128 104l-9 49 137-7c75-3 165-9 201-13zm560-32 35-7 3-132 3-132h104 105v130 130l133-6c72-3 137-7 143-9s15-21 19-42c17-94 67-168 140-206 56-29 186-35 257-13 63 20 160 77 206 119l32 31v-67-67h110 110v101c0 100 0 101 23 95 12-3 47-6 77-6h55l49-75c27-42 51-74 53-71 3 2-16 35-41 72s-44 70-41 72c2 2 23 1 46-3 33-6 39-9 26-17-26-14-21-29 30-80 39-39 44-48 27-48-11 0-56-9-100-20-43-10-266-63-494-115-228-53-599-139-824-191l-408-95-522 171c-286 95-524 175-528 179s27 19 68 35l76 28 51-28c67-36 189-45 269-20 63 20 160 77 206 119l32 31v-67-67h110 110v143 144l108-5c59-2 123-7 142-11zm995-52 50-1-50-24c-66-31-151-33-189-3-45 35-33 43 57 36 45-4 105-7 132-8zm1114-65c9-8-155-2-174 6-12 6 16 7 75 3 52-3 97-7 99-9zm-5311-105c81-60 139-74 312-75l155-1 32-274c17-151 28-277 25-280-4-3-117-48-252-99-283-107-593-225-805-306-749-287-1475-560-1473-553 3 10 1949 1618 1959 1619 3 0 24-14 47-31zm4987-34c31-14 76-28 100-32 23-3 47-8 53-12 6-3 106-220 223-481 241-541 244-549 231-535-12 12-712 1064-712 1070 0 2 10 6 23 8 12 2 23 5 23 6 1 0 27-10 59-24zm-3093-17c37-12 68-26 68-30s-2-8-4-8c-3 0-40-13-83-29l-78-29 3 59c2 34 8 59 15 59 6 0 41-10 79-22zm3357-552 381-573-35-37-34-36-503 166c-277 91-705 232-953 314-247 82-569 188-715 236-146 47-268 89-273 93-4 4 48 19 115 34 68 15 458 106 868 202 410 95 750 174 756 174 6 1 183-257 393-573zm176 522c23-102 195-1004 192-1011-1-5-104 220-229 499l-226 509 110 7c60 3 112 9 115 12 14 13 33 5 38-16zm-2898-180c434-143 520-174 496-180-15-4-221-53-458-107-236-55-722-168-1080-251-842-195-884-205-889-199-5 5-47 361-44 364 2 1 130 50 284 109l282 107 93-12c103-12 235-6 316 15 122 32 201 96 243 198l23 57 91 35c50 19 97 35 105 35 8 1 250-76 538-171zm768-254c336-110 1826-601 2055-677 118-40 214-76 213-82-5-21 190-28-3943 134-708 28-975 42-978 50-2 7-13 21-24 31-35 32-16 45 108 73 66 14 421 96 789 182 369 85 857 199 1085 251 228 53 417 98 419 100 16 15 102-5 276-62zm-2761-176c10-73 36-296 36-307 0-13 4-12-490-126-228-53-696-162-1040-241-890-207-972-225-976-221-3 3 269 108 1271 489 217 82 336 128 430 164 530 203 742 283 752 283 6 1 14-18 17-41zm25-366c-10-7-19-22-19-32 0-12-9-22-22-25-117-26-1964-385-1971-382-5 1 141 37 324 80 608 140 1674 387 1684 391 20 6 23-18 4-32zm3161-186c927-37 1694-67 1705-69 11-1-173-10-410-20-236-10-1022-42-1745-72s-1967-82-2765-115c-797-33-1666-69-1929-80s-480-19-482-17c-2 1 371 76 829 166s1010 199 1227 242c249 49 399 74 405 68 13-13 48-11 68 4 14 10 152 7 715-15 383-15 1455-56 2382-92zm-5197-263c-7-2-19-2-25 0-7 3-2 5 12 5s19-2 13-5zm-46-9c-3-3-12-4-19-1-8 3-5 6 6 6 11 1 17-2 13-5z"/><path d="m1690 4975v-675h115 115v265 265h93 93l170-262 170-263 137-3 136-3-174 269c-95 148-175 274-177 281s16 19 42 28c131 45 201 144 220 311 22 198-38 341-176 411-81 42-160 51-471 51h-293zm615 450c50-25 80-70 89-132 14-107-16-187-84-227-31-19-55-21-212-24l-178-4v207 207l173-4c146-3 178-7 212-23z"/></g></svg>